<svg xmlns="http://www.w3.org/2000/svg" version="1.1" xmlns:xlink="http://www.w3.org/1999/xlink" xmlns:svgjs="http://svgjs.dev/svgjs" width="2000" height="409" viewBox="0 0 2000 409"><g transform="matrix(1,0,0,1,-1.2135396899227544,0.9308818587366829)"><svg viewBox="0 0 396 81" data-background-color="#0c1d36" preserveAspectRatio="xMidYMid meet" height="409" width="2000" xmlns="http://www.w3.org/2000/svg" xmlns:xlink="http://www.w3.org/1999/xlink"><g id="tight-bounds" transform="matrix(1,0,0,1,0.24028085860470583,-0.18435557593562635)"><svg viewBox="0 0 395.52 81.36871115187122" height="81.36871115187122" width="395.52"><g><svg viewBox="0 0 395.52 81.36871115187122" height="81.36871115187122" width="395.52"><g><svg viewBox="0 0 395.52 81.36871115187122" height="81.36871115187122" width="395.52"><g id="textblocktransform"><svg viewBox="0 0 395.52 81.36871115187122" height="81.36871115187122" width="395.52" id="textblock"><g><svg viewBox="0 0 395.52 81.36871115187122" height="81.36871115187122" width="395.52"><g transform="matrix(1,0,0,1,0,0)"><svg width="395.52" viewBox="1.660471232502537 -16.19461902205402 199.28849876749746 40.99883952394262" height="81.36871115187122" data-palette-color="#f9cc0b"><path d="M11.883 15.327v0c-2.346-0.536-4.337-1.385-5.973-2.545-1.629-1.159-2.809-2.506-3.539-4.04-0.722-1.54-0.894-3.135-0.516-4.785v0c0.345-1.508 1.034-2.711 2.066-3.611 1.033-0.899 2.301-1.481 3.805-1.746 1.505-0.271 3.132-0.207 4.88 0.193v0c0.461 0.105 0.901 0.233 1.318 0.383 0.419 0.144 0.86 0.337 1.324 0.58v0l-0.25 1.092c-1.592-0.364-3.042-0.425-4.348-0.184-1.308 0.248-2.393 0.715-3.254 1.4-0.856 0.693-1.395 1.524-1.616 2.492v0c-0.269 1.176-0.139 2.252 0.39 3.229 0.521 0.981 1.351 1.824 2.489 2.528 1.132 0.703 2.468 1.231 4.008 1.583v0c2.574 0.588 4.67 0.633 6.288 0.135 1.618-0.498 2.581-1.417 2.887-2.756v0c0.247-1.079 0.073-2.052-0.522-2.92-0.593-0.874-1.496-1.699-2.707-2.475v0l-7.517-5.032c-0.915-0.606-1.809-1.361-2.683-2.265-0.875-0.898-1.546-1.926-2.013-3.087-0.473-1.161-0.554-2.424-0.241-3.789v0c0.352-1.54 1.104-2.808 2.254-3.803 1.143-0.99 2.614-1.635 4.412-1.935 1.799-0.3 3.848-0.187 6.15 0.339v0c2.112 0.483 3.907 1.276 5.385 2.38 1.479 1.097 2.544 2.377 3.194 3.838 0.652 1.455 0.796 2.979 0.432 4.572v0c-0.282 1.235-0.857 2.311-1.722 3.227-0.871 0.909-1.988 1.546-3.35 1.911-1.362 0.366-2.931 0.346-4.705-0.06v0c-0.429-0.098-0.832-0.218-1.211-0.359-0.377-0.148-0.786-0.347-1.227-0.598v0l0.272-1.19c1.287 0.294 2.493 0.341 3.619 0.141 1.133-0.199 2.094-0.619 2.884-1.259 0.789-0.64 1.302-1.477 1.538-2.511v0c0.224-0.981 0.129-1.926-0.286-2.835-0.423-0.904-1.111-1.693-2.063-2.369-0.958-0.684-2.136-1.186-3.534-1.505v0c-1.345-0.308-2.602-0.373-3.771-0.196-1.169 0.177-2.146 0.549-2.932 1.115-0.778 0.561-1.265 1.27-1.461 2.128v0c-0.244 1.066-0.078 2.003 0.496 2.811 0.574 0.808 1.451 1.597 2.629 2.365v0l7.527 5.034c2.001 1.326 3.462 2.686 4.381 4.079 0.918 1.4 1.155 3.068 0.713 5.005v0c-0.36 1.573-1.156 2.858-2.39 3.855-1.233 0.997-2.825 1.631-4.774 1.903-1.95 0.272-4.195 0.118-6.736-0.463zM53.892 22.431v0c-2.038-0.253-3.861-0.855-5.469-1.806-1.603-0.944-2.834-2.199-3.696-3.764-0.853-1.57-1.165-3.416-0.936-5.537v0l3.692 0.458c-0.176 1.422 0.026 2.633 0.608 3.632 0.582 0.999 1.417 1.795 2.506 2.386 1.096 0.586 2.323 0.963 3.678 1.131v0c1.469 0.182 2.775 0.105 3.918-0.229 1.143-0.335 2.057-0.85 2.741-1.545 0.684-0.694 1.083-1.502 1.197-2.421v0c0.161-1.297-0.106-2.395-0.801-3.294-0.688-0.898-1.779-1.692-3.272-2.38v0l-5.144-2.562c-2.415-1.22-4.195-2.492-5.341-3.816-1.152-1.325-1.599-3.036-1.339-5.134v0c0.293-2.362 1.441-4.174 3.445-5.437 2.004-1.263 4.68-1.687 8.027-1.273v0c3.103 0.385 5.439 1.403 7.008 3.055 1.57 1.646 2.334 3.688 2.293 6.129v0l-3.731-0.463c-0.07-1.44-0.593-2.616-1.568-3.529-0.981-0.921-2.457-1.504-4.428-1.748v0c-2.005-0.248-3.621 0.005-4.851 0.759-1.221 0.749-1.916 1.801-2.084 3.158v0c-0.139 1.118 0.102 2.048 0.723 2.79 0.62 0.742 1.652 1.464 3.096 2.167v0l6.032 2.964c2.093 0.998 3.694 2.231 4.801 3.699 1.101 1.467 1.523 3.242 1.265 5.326v0c-0.2 1.614-0.811 3.023-1.834 4.227-1.029 1.203-2.432 2.087-4.208 2.652-1.777 0.572-3.887 0.707-6.328 0.405zM81.473 24.784v0c-1.271-0.075-2.395-0.388-3.371-0.94-0.983-0.545-1.739-1.324-2.267-2.337-0.529-1.006-0.75-2.241-0.664-3.705v0l1.4-23.809 3.763 0.221-1.393 23.709c-0.142 2.409 0.909 3.68 3.152 3.812v0c0.666 0.039 1.315 0.004 1.949-0.106 0.634-0.11 1.349-0.288 2.145-0.535v0l0.379 2.757c-0.846 0.311-1.689 0.555-2.527 0.733-0.832 0.185-1.688 0.251-2.566 0.2zM87.165 3.771l-14.884-0.874 0.155-2.636 14.884 0.875zM96.997 24.657l-3.809-0.062 0.381-23.407 3.81 0.062zM97.169 14.098l-1.179-0.019c0.048-2.96 0.375-5.418 0.98-7.375 0.599-1.95 1.456-3.4 2.571-4.349 1.116-0.955 2.463-1.42 4.043-1.394v0c0.527 0.009 1.003 0.053 1.428 0.133 0.432 0.08 0.867 0.197 1.305 0.352v0l-0.301 3.755c-0.458-0.154-0.952-0.286-1.484-0.394-0.538-0.115-1.021-0.177-1.447-0.184v0c-1.38-0.022-2.499 0.353-3.359 1.126-0.859 0.779-1.494 1.883-1.904 3.309-0.403 1.427-0.621 3.107-0.653 5.04zM119.596 24.796v0c-2.019 0.074-3.84-0.379-5.464-1.359-1.63-0.974-2.939-2.363-3.926-4.168-0.987-1.805-1.525-3.903-1.613-6.295v0c-0.094-2.558 0.281-4.774 1.126-6.646 0.845-1.872 2.042-3.331 3.591-4.376 1.549-1.038 3.344-1.594 5.383-1.669v0c1.772-0.065 3.298 0.235 4.576 0.902 1.279 0.673 2.324 1.605 3.135 2.796 0.811 1.191 1.395 2.55 1.751 4.079 0.357 1.528 0.502 3.117 0.436 4.767v0l-16.898 0.623-0.087-2.349 14.381-0.53-1.093 0.771c0.011-0.961-0.077-1.918-0.266-2.872-0.189-0.954-0.511-1.826-0.967-2.616-0.449-0.791-1.066-1.415-1.85-1.873-0.784-0.465-1.769-0.675-2.955-0.632v0c-1.499 0.055-2.741 0.485-3.725 1.288-0.978 0.803-1.697 1.837-2.158 3.102-0.46 1.264-0.664 2.62-0.61 4.065v0l0.057 1.569c0.06 1.626 0.363 3.072 0.911 4.339 0.54 1.268 1.321 2.256 2.341 2.966 1.027 0.716 2.297 1.046 3.809 0.99v0c1.512-0.056 2.745-0.468 3.697-1.237 0.946-0.769 1.499-1.873 1.659-3.313v0l3.957-0.146c-0.19 1.555-0.693 2.904-1.512 4.049-0.825 1.151-1.892 2.051-3.202 2.699-1.317 0.656-2.811 1.014-4.484 1.076zM154.934 21.308l-3.303 0.328-0.996-5.056-0.991-9.971c-0.208-2.09-0.802-3.548-1.782-4.375-0.987-0.826-2.369-1.151-4.146-0.974v0c-1.008 0.1-1.906 0.337-2.693 0.71-0.794 0.374-1.399 0.886-1.817 1.537-0.417 0.658-0.578 1.464-0.483 2.42v0l-4.229 0.42c-0.168-1.685 0.112-3.083 0.839-4.194 0.72-1.11 1.784-1.97 3.19-2.578 1.407-0.602 3.043-0.996 4.908-1.181v0c1.778-0.177 3.386-0.035 4.825 0.424 1.439 0.46 2.612 1.305 3.518 2.535 0.906 1.23 1.463 2.889 1.671 4.979v0zM143.758 23.012v0c-1.911 0.19-3.523 0.005-4.838-0.554-1.315-0.559-2.335-1.349-3.06-2.369-0.725-1.027-1.147-2.14-1.267-3.341v0c-0.156-1.572 0.111-2.892 0.803-3.959 0.685-1.066 1.684-1.899 2.997-2.498 1.321-0.594 2.831-0.975 4.529-1.144v0c1.214-0.121 2.447-0.123 3.698-0.006 1.245 0.124 2.472 0.34 3.682 0.649v0l0.236 2.378c-1.007-0.295-2.136-0.494-3.385-0.598-1.243-0.104-2.375-0.105-3.397-0.004v0c-1.559 0.155-2.841 0.607-3.845 1.357-1.005 0.743-1.431 1.884-1.278 3.424v0c0.113 1.134 0.617 2.066 1.514 2.793 0.904 0.734 2.255 1.012 4.053 0.834v0c1.26-0.125 2.368-0.537 3.324-1.235 0.956-0.691 1.685-1.511 2.187-2.459 0.501-0.954 0.708-1.876 0.62-2.765v0l0.925-0.092c0.155 1.559-0.037 3.035-0.574 4.429-0.545 1.394-1.4 2.558-2.568 3.491-1.166 0.94-2.618 1.496-4.356 1.669zM200.949 12.769l-3.753 0.711-2.556-13.49c-0.416-2.194-1.256-3.765-2.521-4.713-1.264-0.941-2.783-1.244-4.559-0.907v0c-2.083 0.395-3.523 1.499-4.319 3.311-0.802 1.821-0.935 4.146-0.398 6.977v0l-1.73 0.327c-0.391-2.063-0.527-3.91-0.408-5.541 0.112-1.629 0.463-3.036 1.053-4.219 0.585-1.176 1.389-2.126 2.412-2.849 1.03-0.724 2.255-1.221 3.677-1.491v0c1.808-0.342 3.433-0.233 4.876 0.329 1.436 0.562 2.645 1.531 3.624 2.906 0.973 1.376 1.655 3.096 2.046 5.159v0zM168.683 18.882l-3.744 0.709-4.348-22.952 3.213-0.608 1.305 4.526c0.405-1.8 1.175-3.273 2.309-4.417 1.135-1.138 2.616-1.88 4.443-2.226v0c1.808-0.342 3.43-0.233 4.866 0.33 1.443 0.561 2.651 1.53 3.625 2.906 0.973 1.376 1.655 3.096 2.046 5.159v0l2.555 13.49-3.694 0.7-2.555-13.49c-0.416-2.194-1.256-3.765-2.522-4.713-1.264-0.941-2.8-1.241-4.607-0.898v0c-1.376 0.261-2.496 0.863-3.363 1.808-0.867 0.938-1.44 2.159-1.718 3.663-0.278 1.505-0.234 3.227 0.134 5.166v0z" opacity="1" transform="matrix(1,0,0,1,0,0)" fill="#f9cc0b" class="wordmark-text-0" data-fill-palette-color="primary" id="text-0"></path></svg></g></svg></g></svg></g></svg></g><g></g></svg></g><defs></defs></svg><rect width="395.52" height="81.36871115187122" fill="none" stroke="none" visibility="hidden"></rect></g></svg></g></svg>